<svg xmlns="http://www.w3.org/2000/svg" width="500" viewBox="0 0 375 375" height="500" version="1.0">
  <defs>
    <clipPath id="a">
      <path d="M22 19h331v333H22Zm0 0"/>
    </clipPath>
    <clipPath id="b">
      <path d="m45.621.004 329.18 46.289-45.235 321.7L.383 321.702Zm0 0"/>
    </clipPath>
    <clipPath id="c">
      <path d="m45.621.004 329.18 46.289-45.235 321.7L.383 321.702Zm0 0"/>
    </clipPath>
    <clipPath id="d">
      <path d="M64 63h237v236H64Zm0 0"/>
    </clipPath>
    <clipPath id="e">
      <path d="m299.488 42.223 21.43 255.972-255.977 21.43L43.516 63.648Zm0 0"/>
    </clipPath>
    <clipPath id="f">
      <path d="m299.488 42.223 21.43 255.972-255.977 21.43L43.516 63.648Zm0 0"/>
    </clipPath>
    <clipPath id="g">
      <path d="m299.488 42.223 21.43 255.972-255.977 21.43L43.516 63.648Zm0 0"/>
    </clipPath>
    <clipPath id="h">
      <path d="M53 52h258v258H53Zm0 0"/>
    </clipPath>
    <clipPath id="i">
      <path d="m299.488 42.223 21.43 255.972-255.977 21.43L43.516 63.648Zm0 0"/>
    </clipPath>
    <clipPath id="j">
      <path d="m299.488 42.223 21.43 255.972-255.977 21.43L43.516 63.648Zm0 0"/>
    </clipPath>
    <clipPath id="k">
      <path d="m299.488 42.223 21.43 255.972-255.977 21.43L43.516 63.648Zm0 0"/>
    </clipPath>
    <clipPath id="l">
      <path d="M95.84 92.43h173.762v173.765H95.84Zm0 0"/>
    </clipPath>
    <clipPath id="m">
      <path d="M95.84 167.43v24.793a75 75 0 0 0 21.965 53.035 75 75 0 0 0 53.035 21.965h24.793a75 75 0 0 0 75-75V167.43a75 75 0 0 0-75-75H170.84a75 75 0 0 0-53.035 21.965A75 75 0 0 0 95.84 167.43m0 0"/>
    </clipPath>
  </defs>
  <g clip-path="url(#a)">
    <g clip-path="url(#b)">
      <g clip-path="url(#c)">
        <path fill="#F4E0B9" d="M180.469 19.438c-3.324.687-6.332 3.23-11.61 9.78-4.773 5.966-6.015 7.34-8.144 9.06-4.61 3.679-7.156 3.32-18.973-2.59-8.164-4.06-8.906-4.376-11.914-4.797-2.855-.403-4.488 0-6.43 1.507-2.57 2.028-4.046 4.707-6.41 11.614-2.976 8.683-4.011 11.187-5.496 13.34-.926 1.367-2.629 2.675-4.117 3.175-2.508.852-4.133.832-12.914-.14-8.91-.989-11.262-1.059-13.91-.512-3.031.648-4.688 1.809-6.082 4.262-.492.875-.711 1.89-1.18 5.21-.496 3.524-.559 4.907-.402 9.782.199 6.953.015 9.762-.711 12.125-1.45 4.543-4.156 6.05-15.54 8.648-3.14.688-6.37 1.465-7.187 1.692-4.047 1.164-7.656 3.515-8.777 5.691-1.711 3.406-1.117 7.399 2.543 16.621 3.39 8.531 3.996 10.953 3.558 14.25-.238 1.88-.41 2.356-1.156 3.375-1.504 2.098-4.222 4.262-10.422 8.242-6.488 4.176-9.156 6.348-10.867 8.809-.953 1.387-1.113 1.785-1.375 3.637-.262 1.851-.215 2.277.32 3.875.965 2.84 2.93 5.66 8.016 11.465 10.602 12.113 10.676 13.828.992 26.527-5.472 7.207-7.031 9.898-7.465 12.988-.3 2.133.07 3.785 1.262 5.578 1.887 2.813 4.125 4.41 11.942 8.711 10.523 5.758 12.59 7.856 12.667 12.907.024 2.44-.699 5.539-2.894 12.367-1.25 3.863-1.582 5.285-2.066 8.734-.547 3.7-.551 4.277-.22 5.66.77 3.102 3.22 5.281 7.434 6.633 1.36.43 5.41 1.262 10.536 2.137 8.84 1.508 10.378 1.933 12.578 3.449 1.218.855 2.523 2.586 3.011 3.965.883 2.484 1.157 4.832 1.563 13.129.539 10.539 1.66 14.136 5.195 16.418 1.11.703 1.684.89 3.64 1.164 3.009.426 3.837.332 12.778-1.324 12.961-2.426 15.508-2.07 18.836 2.625 1.688 2.359 2.461 3.937 5.445 11.074 2.461 5.828 4.22 8.988 6.11 10.851 2.605 2.547 5.406 3.149 9.187 2.004 2.493-.754 4.61-1.82 9.692-4.933 5.824-3.54 7.976-4.676 10.242-5.489 2.84-.988 4.695-1.12 6.539-.418 2.914 1.094 5.238 3.047 10.926 9.223 5.648 6.121 7.539 7.777 10.422 9.102 1.726.793 3.093.957 4.816.625 3.297-.664 6.328-3.204 11.61-9.782 4.835-6.035 6.015-7.34 8.288-9.144 4.493-3.59 7.04-3.235 18.829 2.676 8.164 4.058 8.906 4.375 11.914 4.796 2.855.403 4.488 0 6.43-1.507 2.57-2.028 4.046-4.707 6.41-11.614 3.03-8.886 4.386-12.003 5.972-13.957.95-1.125 2.344-2.109 3.64-2.558 2.509-.852 4.134-.832 12.915.14 4.547.508 9.137.891 10.187.88 4.805-.032 7.653-1.259 9.524-4.118.808-1.277.898-1.55 1.441-5.594.508-3.601.57-4.984.442-9.093-.227-7.168-.07-10.348.628-12.688 1.465-4.832 4.06-6.3 15.735-8.91 8.7-1.977 11.293-2.898 13.883-5.078 1.636-1.399 2.449-2.883 2.75-5.02.433-3.086-.32-6.101-3.594-14.539-4.684-12.043-4.676-14.875.047-19.379 1.515-1.441 3.031-2.511 10.648-7.449 4.414-2.84 7.043-5.121 8.57-7.398.82-1.172 1-1.696 1.247-3.446.246-1.75.218-2.304-.246-3.656-.84-2.61-2.739-5.527-6.2-9.476-5.96-6.844-7.12-8.293-8.18-10.094-1.777-3.031-2.015-3.957-1.632-6.473.488-3.289 1.734-5.45 7.348-12.715 6.093-7.902 7.753-11.5 7.027-15.277-.477-2.398-3.297-5.656-6.867-7.89-.723-.442-3.614-2.083-6.438-3.633-10.258-5.614-12.418-7.782-12.558-12.575-.047-2.445.55-5.222 2.664-11.851 1.464-4.621 1.812-5.989 2.308-9.512.469-3.344.535-4.36.305-5.336-.664-2.742-1.938-4.312-4.672-5.77-2.394-1.257-4.672-1.84-13.512-3.343-8.71-1.488-10.277-1.918-12.449-3.43-1.125-.789-2.195-2.117-2.793-3.46-.988-2.317-1.43-5.684-1.898-15.063-.364-7.293-1.047-10.274-2.953-12.93-1.473-2.043-2.91-2.824-5.899-3.219-3.008-.422-3.996-.297-13.05 1.395-12.528 2.355-15.15 1.96-18.544-2.82-1.574-2.239-2.39-3.903-5.332-10.954-2.46-5.828-4.218-8.988-6.109-10.851-2.606-2.547-5.406-3.149-9.188-2.004-2.492.754-4.609 1.82-9.69 4.933-5.825 3.54-7.977 4.676-10.243 5.489-6.098 2.133-8.613.808-18.106-9.473-4.05-4.426-5.77-6.004-7.98-7.445-2.332-1.508-4.563-2.059-6.617-1.613m0 0"/>
      </g>
    </g>
  </g>
  <g clip-path="url(#d)">
    <g clip-path="url(#e)">
      <g clip-path="url(#f)">
        <g clip-path="url(#g)">
          <path fill="#F4E0B9" d="M192.055 298.29a118.6 118.6 0 0 1-17.332.17q-2.882-.181-5.758-.51-2.872-.325-5.727-.79a116 116 0 0 1-5.68-1.074 115 115 0 0 1-11.171-2.973 113 113 0 0 1-5.461-1.894 116 116 0 0 1-10.617-4.578 116 116 0 0 1-5.125-2.676 121 121 0 0 1-4.989-2.922 120 120 0 0 1-9.515-6.563 118 118 0 0 1-4.504-3.625 115 115 0 0 1-4.324-3.84 115 115 0 0 1-4.125-4.046 115 115 0 0 1-3.926-4.246 115 115 0 0 1-3.711-4.43 117 117 0 0 1-6.75-9.387 120 120 0 0 1-3.024-4.93 118 118 0 0 1-5.296-10.273 116 116 0 0 1-4.266-10.742 114 114 0 0 1-1.734-5.516 116 116 0 0 1-2.645-11.254 121 121 0 0 1-.906-5.71 118 118 0 0 1-.961-11.52 119 119 0 0 1-.059-5.781 119 119 0 0 1 .735-11.535q.328-2.873.793-5.727.466-2.854 1.074-5.68a115 115 0 0 1 2.972-11.172 117 117 0 0 1 9.149-21.203 121 121 0 0 1 2.922-4.988 120 120 0 0 1 6.562-9.516 122 122 0 0 1 3.621-4.504 119 119 0 0 1 3.844-4.324 115 115 0 0 1 4.047-4.125 118 118 0 0 1 4.242-3.926 118 118 0 0 1 4.434-3.71 117 117 0 0 1 9.387-6.75 120 120 0 0 1 4.93-3.024 118 118 0 0 1 10.273-5.297 116 116 0 0 1 10.742-4.265 114 114 0 0 1 5.515-1.735c1.852-.531 3.72-1.02 5.594-1.46q2.813-.663 5.66-1.184 2.841-.522 5.711-.903 2.864-.385 5.746-.625a119 119 0 0 1 11.551-.398c1.93.027 3.856.105 5.777.226 1.926.122 3.844.293 5.762.512q2.872.324 5.727.79 2.854.466 5.68 1.073a114 114 0 0 1 5.62 1.348 114 114 0 0 1 5.551 1.625 117 117 0 0 1 21.203 9.149 121 121 0 0 1 4.989 2.921 120 120 0 0 1 9.515 6.563 118 118 0 0 1 8.825 7.465 115 115 0 0 1 4.128 4.047 115 115 0 0 1 3.926 4.246 115 115 0 0 1 3.711 4.43 117 117 0 0 1 6.75 9.387 116 116 0 0 1 3.02 4.929 114 114 0 0 1 2.777 5.07 118 118 0 0 1 8.524 21.461q.797 2.78 1.46 5.594.663 2.813 1.184 5.66.522 2.841.902 5.71.386 2.865.625 5.747a118.6 118.6 0 0 1 .172 17.328 118.6 118.6 0 0 1-2.375 17.168 114 114 0 0 1-1.347 5.621 117 117 0 0 1-3.52 11.012 118 118 0 0 1-2.156 5.363 118 118 0 0 1-5.098 10.38 121 121 0 0 1-2.922 4.987 120 120 0 0 1-6.562 9.516 118 118 0 0 1-7.465 8.824 112 112 0 0 1-4.047 4.13 115 115 0 0 1-4.246 3.925 115 115 0 0 1-4.43 3.71 117 117 0 0 1-4.61 3.493 120 120 0 0 1-9.706 6.281q-2.504 1.448-5.07 2.774a118 118 0 0 1-21.461 8.523 116.4 116.4 0 0 1-16.965 3.547q-2.864.386-5.746.625m0 0"/>
        </g>
      </g>
    </g>
  </g>
  <g clip-path="url(#h)">
    <g clip-path="url(#i)">
      <g clip-path="url(#j)">
        <g clip-path="url(#k)">
          <path fill="#5B3979" d="M54.254 191.621a130 130 0 0 1-.371-6.293c-.07-2.101-.094-4.2-.063-6.3q.048-3.154.246-6.301a129.6 129.6 0 0 1 2.59-18.715q.662-3.082 1.469-6.13a131 131 0 0 1 3.836-12.007 132 132 0 0 1 2.355-5.844q1.248-2.896 2.637-5.726t2.918-5.586a124 124 0 0 1 3.188-5.442 126 126 0 0 1 3.449-5.273 127 127 0 0 1 3.703-5.102 129 129 0 0 1 3.953-4.91 126 126 0 0 1 4.184-4.71q2.15-2.31 4.414-4.5 2.261-2.197 4.629-4.282a129 129 0 0 1 9.86-7.852 131 131 0 0 1 5.202-3.554 133 133 0 0 1 5.375-3.293 124 124 0 0 1 5.531-3.024 128 128 0 0 1 5.668-2.754 131 131 0 0 1 11.715-4.652 129 129 0 0 1 24.508-5.758q3.124-.416 6.266-.68 3.14-.26 6.293-.37c2.101-.07 4.199-.094 6.3-.063q3.154.045 6.301.25a125 125 0 0 1 6.278.555q3.135.352 6.242.863a128 128 0 0 1 18.375 4.41c2 .637 3.988 1.328 5.957 2.063q2.948 1.107 5.843 2.355t5.727 2.637a128 128 0 0 1 11.023 6.105 127 127 0 0 1 10.375 7.153 126 126 0 0 1 4.915 3.953 126 126 0 0 1 4.71 4.183 130 130 0 0 1 8.782 9.043 128.5 128.5 0 0 1 11.402 15.063 129 129 0 0 1 3.297 5.375c1.05 1.82 2.062 3.66 3.023 5.531a128 128 0 0 1 2.754 5.668 128 128 0 0 1 4.648 11.715 129 129 0 0 1 3.485 12.113c.48 2.043.91 4.102 1.29 6.168q.566 3.102.987 6.227.417 3.124.68 6.265.259 3.141.371 6.293c.07 2.102.094 4.2.063 6.301a126 126 0 0 1-.25 6.3 125 125 0 0 1-.555 6.278q-.352 3.135-.863 6.246a128 128 0 0 1-4.41 18.371c-.637 2-1.329 3.989-2.063 5.957a132 132 0 0 1-2.355 5.844q-1.248 2.896-2.637 5.727c-.93 1.886-1.899 3.75-2.918 5.586a133 133 0 0 1-3.188 5.441 130 130 0 0 1-7.152 10.375 129 129 0 0 1-3.953 4.91 123 123 0 0 1-4.188 4.711 123 123 0 0 1-4.41 4.5 129 129 0 0 1-9.46 8.328 129 129 0 0 1-10.231 7.356 127 127 0 0 1-10.906 6.32 128 128 0 0 1-11.469 5.223 128 128 0 0 1-5.914 2.18q-2.982 1.022-6.012 1.89a127 127 0 0 1-12.27 2.883q-3.101.568-6.226.988-3.124.416-6.266.68-3.14.258-6.293.363-3.147.106-6.3.055c-2.098-.031-4.2-.117-6.293-.254q-3.148-.2-6.278-.559a129 129 0 0 1-6.242-.867q-3.11-.511-6.191-1.176-3.084-.66-6.125-1.472a129 129 0 0 1-17.844-6.196 133 133 0 0 1-5.723-2.64 131 131 0 0 1-5.586-2.918 130 130 0 0 1-10.707-6.637q-2.596-1.793-5.097-3.703a132 132 0 0 1-4.91-3.95 130 130 0 0 1-9.211-8.597 129 129 0 0 1-8.325-9.457 126 126 0 0 1-3.804-5.023 121 121 0 0 1-3.555-5.204 128 128 0 0 1-11.55-22.36 132 132 0 0 1-2.188-5.91 131 131 0 0 1-3.489-12.105 127 127 0 0 1-2.29-12.39 129 129 0 0 1-.686-6.262m234.762-19.652a102 102 0 0 0-.567-5.23 106 106 0 0 0-.82-5.196q-.48-2.584-1.078-5.148a107 107 0 0 0-4.727-15.04 108 108 0 0 0-2.062-4.84 106 106 0 0 0-2.293-4.734 110 110 0 0 0-5.274-9.097 109 109 0 0 0-2.965-4.344 115 115 0 0 0-3.175-4.192 107.4 107.4 0 0 0-10.703-11.578 104 104 0 0 0-3.934-3.496 107 107 0 0 0-4.098-3.293 107 107 0 0 0-4.257-3.094 109 109 0 0 0-4.399-2.878 112 112 0 0 0-4.539-2.66 110 110 0 0 0-4.664-2.434 108 108 0 0 0-9.656-4.164 101 101 0 0 0-4.97-1.723 104 104 0 0 0-5.046-1.476 105 105 0 0 0-10.285-2.204q-2.596-.425-5.211-.722a107 107 0 0 0-5.238-.461q-2.624-.171-5.254-.207a107 107 0 0 0-10.512.36c-1.746.148-3.492.335-5.23.57a106.4 106.4 0 0 0-20.45 4.804q-2.49.85-4.933 1.82a106 106 0 0 0-9.574 4.356 106 106 0 0 0-4.614 2.527 106 106 0 0 0-13.023 8.887 107 107 0 0 0-4.031 3.379 104 104 0 0 0-3.864 3.57 104 104 0 0 0-3.68 3.754 107 107 0 0 0-9.883 12.285 112 112 0 0 0-2.878 4.403 112 112 0 0 0-2.66 4.539q-1.273 2.303-2.434 4.664a106 106 0 0 0-2.2 4.777 103 103 0 0 0-1.964 4.879 101 101 0 0 0-1.723 4.969 104 104 0 0 0-1.476 5.047 105 105 0 0 0-2.203 10.285 106 106 0 0 0-1.188 10.449q-.167 2.624-.203 5.254a107 107 0 0 0 .36 10.512c.148 1.746.335 3.492.57 5.23q.346 2.606.82 5.195a106 106 0 0 0 1.078 5.145 107 107 0 0 0 4.727 15.043 106 106 0 0 0 6.883 14.188 108 108 0 0 0 2.746 4.484 106 106 0 0 0 6.14 8.535 107.4 107.4 0 0 0 10.703 11.578q1.923 1.798 3.934 3.496a109 109 0 0 0 8.352 6.387c1.445.996 2.914 1.953 4.402 2.879q2.237 1.382 4.539 2.66 2.303 1.272 4.664 2.434 2.36 1.155 4.777 2.199 2.414 1.043 4.88 1.965 2.46.925 4.968 1.722 2.506.803 5.047 1.477a105 105 0 0 0 10.285 2.203 106 106 0 0 0 10.45 1.184q2.624.17 5.253.207a107 107 0 0 0 10.512-.36 107 107 0 0 0 10.418-1.402q2.588-.48 5.148-1.082 2.555-.605 5.086-1.332a104 104 0 0 0 5.016-1.582q2.485-.851 4.93-1.824a107.6 107.6 0 0 0 14.18-6.887 107.5 107.5 0 0 0 20.902-15.836 108 108 0 0 0 7.176-7.687q1.699-2.008 3.292-4.098a104 104 0 0 0 3.094-4.254c.996-1.442 1.953-2.91 2.88-4.399a107.6 107.6 0 0 0 9.262-18.848q.923-2.466 1.725-4.968a108 108 0 0 0 2.707-10.156 106 106 0 0 0 1.704-10.375 107 107 0 0 0 .632-15.75q-.088-2.631-.304-5.25m0 0"/>
        </g>
      </g>
    </g>
  </g>
  <g clip-path="url(#l)">
    <g clip-path="url(#m)">
      <path fill="#5B3979" d="M215.3 125.008a32.4 32.4 0 0 1-3.433 14.574l57.735 28.867v32.582h-38.008l27.148 54.301v10.863h-54.3l-21.723-43.441L161 266.195h-54.3v-10.863l27.148-54.3H95.84v-32.583l57.734-28.867a32.4 32.4 0 0 1-3.433-14.574c0-17.992 14.586-32.578 32.578-32.578 17.996 0 32.582 14.586 32.582 32.578m0 0"/>
    </g>
  </g>
</svg>
